<svg width="16" height="16" viewBox="0 0 16 16" fill="none" xmlns="http://www.w3.org/2000/svg">
<path id="Icon" d="M0.75551 15.2512C1.19529 15.691 1.93172 15.716 2.3768 15.2709L8.00007 9.64768L13.4526 15.1002C13.8929 15.5405 14.6424 15.5382 15.087 15.0936C15.5393 14.6413 15.5328 13.8984 15.0936 13.4592L9.64106 8.00668L15.2709 2.37684C15.716 1.93177 15.691 1.19534 15.2512 0.755555C14.8037 0.308017 14.0738 0.291925 13.6299 0.735849L8.00007 6.36569L2.54758 0.9132C2.11072 0.476342 1.36124 0.458543 0.906586 0.9132C0.459661 1.36013 0.468553 2.11616 0.906587 2.55419L6.35908 8.00668L0.735804 13.63C0.29188 14.0739 0.307971 14.8037 0.75551 15.2512Z" fill="black" stroke="black" stroke-width="0.5"/>
</svg>
