<svg width="16" height="26" viewBox="0 0 16 26" fill="none" xmlns="http://www.w3.org/2000/svg">
<path id="Vector" opacity="0.9" fill-rule="evenodd" clip-rule="evenodd" d="M4.65179 4.09848C4.65179 3.14411 5.00454 2.22882 5.63246 1.55397C6.26037 0.879125 7.112 0.5 8 0.5C8.888 0.5 9.73963 0.879125 10.3675 1.55397C10.9955 2.22882 11.3482 3.14411 11.3482 4.09848V12.3056C11.3482 13.2599 10.9955 14.1752 10.3675 14.8501C9.73963 15.5249 8.888 15.904 8 15.904C7.112 15.904 6.26037 15.5249 5.63246 14.8501C5.00454 14.1752 4.65179 13.2599 4.65179 12.3056V4.09848ZM9.11607 20.6181C10.9757 20.3293 12.6762 19.3301 13.9061 17.8034C15.1359 16.2768 15.8127 14.3249 15.8125 12.3056C15.8125 11.9874 15.6949 11.6823 15.4856 11.4574C15.2763 11.2324 14.9924 11.1061 14.6964 11.1061C14.4004 11.1061 14.1166 11.2324 13.9072 11.4574C13.6979 11.6823 13.5804 11.9874 13.5804 12.3056C13.5804 13.8962 12.9924 15.4217 11.9459 16.5464C10.8994 17.6712 9.48 18.303 8 18.303C6.52 18.303 5.10061 17.6712 4.05409 16.5464C3.00757 15.4217 2.41964 13.8962 2.41964 12.3056C2.41964 11.9874 2.30206 11.6823 2.09275 11.4574C1.88345 11.2324 1.59957 11.1061 1.30357 11.1061C1.00757 11.1061 0.723694 11.2324 0.51439 11.4574C0.305086 11.6823 0.1875 11.9874 0.1875 12.3056C0.18725 14.3249 0.864063 16.2768 2.09392 17.8034C3.32378 19.3301 5.02432 20.3293 6.88393 20.6181V23.101H5.3386C5.0426 23.101 4.75872 23.2274 4.54942 23.4523C4.34011 23.6773 4.22253 23.9824 4.22253 24.3005C4.22253 24.6186 4.34011 24.9237 4.54942 25.1487C4.75872 25.3736 5.0426 25.5 5.3386 25.5H10.6614C10.9574 25.5 11.2413 25.3736 11.4506 25.1487C11.6599 24.9237 11.7775 24.6186 11.7775 24.3005C11.7775 23.9824 11.6599 23.6773 11.4506 23.4523C11.2413 23.2274 10.9574 23.101 10.6614 23.101H9.11607V20.6181Z" fill="black"/>
</svg>
